<svg width="20" height="20" viewBox="0 0 20 20" fill="none" xmlns="http://www.w3.org/2000/svg">
<path d="M2.16609 9.59638C1.94464 9.81784 1.94464 10.1822 2.16609 10.4036L6.73803 14.9756C6.95948 15.197 7.32381 15.197 7.54526 14.9756C7.76671 14.7541 7.76671 14.3898 7.54526 14.1683L3.94843 10.5715H7.71314H13.9996C14.3139 10.5715 14.571 10.3143 14.571 10C14.571 9.68568 14.3139 9.42851 13.9996 9.42851H7.71314H3.94843L7.54526 5.83168C7.76671 5.61022 7.76671 5.2459 7.54526 5.02444C7.32381 4.80299 6.95948 4.80299 6.73803 5.02444L2.16609 9.59638ZM16.857 16.2864C16.857 16.6007 17.1142 16.8579 17.4285 16.8579C17.7428 16.8579 18 16.6007 18 16.2864V3.71358C18 3.39926 17.7428 3.14209 17.4285 3.14209C17.1142 3.14209 16.857 3.39926 16.857 3.71358V16.2864Z" fill="black"/>
</svg>
